<mxfile host="65bd71144e">
    <diagram id="2C-1SokRFBkSGyVWzA04" name="Page-1">
        <mxGraphModel dx="4666" dy="6603" grid="1" gridSize="10" guides="1" tooltips="1" connect="1" arrows="1" fold="1" page="1" pageScale="1" pageWidth="850" pageHeight="1100" math="0" shadow="0">
            <root>
                <mxCell id="0"/>
                <mxCell id="1" parent="0"/>
                <mxCell id="50" style="edgeStyle=none;html=1;exitDx=0;exitDy=0;entryX=0.5;entryY=0;entryDx=0;entryDy=0;startArrow=none;" parent="1" source="157" target="49" edge="1">
                    <mxGeometry relative="1" as="geometry"/>
                </mxCell>
                <mxCell id="80" style="edgeStyle=none;html=1;exitX=1;exitY=0.5;exitDx=0;exitDy=0;entryX=0.408;entryY=0.508;entryDx=0;entryDy=0;entryPerimeter=0;" parent="1" source="49" target="288" edge="1">
                    <mxGeometry relative="1" as="geometry">
                        <mxPoint x="-1027" y="-610" as="targetPoint"/>
                    </mxGeometry>
                </mxCell>
                <mxCell id="360" style="edgeStyle=none;html=1;" parent="1" source="49" target="359" edge="1">
                    <mxGeometry relative="1" as="geometry"/>
                </mxCell>
                <mxCell id="49" value="BIN_OPS" style="rounded=1;arcSize=10;whiteSpace=wrap;html=1;align=center;" parent="1" vertex="1">
                    <mxGeometry x="-1282" y="-470" width="120" height="100" as="geometry"/>
                </mxCell>
                <mxCell id="154" value="" style="edgeStyle=none;html=1;entryX=0.404;entryY=0.507;entryDx=0;entryDy=0;entryPerimeter=0;" parent="1" source="142" target="153" edge="1">
                    <mxGeometry relative="1" as="geometry">
                        <mxPoint x="-1257.5" y="-2260" as="targetPoint"/>
                    </mxGeometry>
                </mxCell>
                <mxCell id="142" value="OPEN_PARAM&lt;br&gt;OPEN_BRACE&lt;br&gt;OPEN_HASHMAP" style="rounded=1;arcSize=10;whiteSpace=wrap;html=1;align=center;" parent="1" vertex="1">
                    <mxGeometry x="-1515" y="-2750" width="120" height="100" as="geometry"/>
                </mxCell>
                <mxCell id="153" value="" style="shape=waypoint;sketch=0;size=6;pointerEvents=1;points=[];fillColor=default;resizable=0;rotatable=0;perimeter=centerPerimeter;snapToPoint=1;rounded=1;arcSize=10;" parent="1" vertex="1">
                    <mxGeometry x="-1065" y="-2720" width="40" height="40" as="geometry"/>
                </mxCell>
                <mxCell id="158" value="" style="edgeStyle=none;html=1;" parent="1" target="157" edge="1">
                    <mxGeometry relative="1" as="geometry">
                        <mxPoint x="-1356.9999999999998" y="-530" as="sourcePoint"/>
                    </mxGeometry>
                </mxCell>
                <mxCell id="156" value="BOOL" style="rounded=1;arcSize=10;whiteSpace=wrap;html=1;align=center;" parent="1" vertex="1">
                    <mxGeometry x="-1477" y="-610" width="120" height="100" as="geometry"/>
                </mxCell>
                <mxCell id="157" value="" style="shape=waypoint;sketch=0;size=6;pointerEvents=1;points=[];fillColor=default;resizable=0;rotatable=0;perimeter=centerPerimeter;snapToPoint=1;rounded=1;arcSize=10;" parent="1" vertex="1">
                    <mxGeometry x="-1242" y="-550" width="40" height="40" as="geometry"/>
                </mxCell>
                <mxCell id="159" value="" style="edgeStyle=none;html=1;exitX=0.5;exitY=1;exitDx=0;exitDy=0;entryDx=0;entryDy=0;endArrow=none;entryX=0.475;entryY=-0.064;entryPerimeter=0;" parent="1" target="157" edge="1">
                    <mxGeometry relative="1" as="geometry">
                        <mxPoint x="-1222" y="-570.0000000000005" as="sourcePoint"/>
                        <mxPoint x="-1222" y="-390" as="targetPoint"/>
                    </mxGeometry>
                </mxCell>
                <mxCell id="189" value="" style="edgeStyle=none;html=1;entryX=0.038;entryY=0.443;entryDx=0;entryDy=0;entryPerimeter=0;" parent="1" source="184" target="267" edge="1">
                    <mxGeometry relative="1" as="geometry">
                        <mxPoint x="-1225" y="-1340" as="targetPoint"/>
                    </mxGeometry>
                </mxCell>
                <mxCell id="184" value="STRING" style="rounded=1;arcSize=10;whiteSpace=wrap;html=1;align=center;" parent="1" vertex="1">
                    <mxGeometry x="-1487" y="-1390" width="120" height="100" as="geometry"/>
                </mxCell>
                <mxCell id="266" style="edgeStyle=none;html=1;exitX=1;exitY=0.5;exitDx=0;exitDy=0;entryX=0.644;entryY=0.557;entryDx=0;entryDy=0;entryPerimeter=0;" parent="1" source="232" target="272" edge="1">
                    <mxGeometry relative="1" as="geometry">
                        <mxPoint x="-1267.5" y="-1861" as="targetPoint"/>
                    </mxGeometry>
                </mxCell>
                <mxCell id="428" value="" style="edgeStyle=none;html=1;" edge="1" parent="1" source="232" target="334">
                    <mxGeometry relative="1" as="geometry"/>
                </mxCell>
                <mxCell id="232" value="WORD" style="rounded=1;arcSize=10;whiteSpace=wrap;html=1;align=center;" parent="1" vertex="1">
                    <mxGeometry x="-1495" y="-1880" width="120" height="100" as="geometry"/>
                </mxCell>
                <mxCell id="278" value="" style="edgeStyle=none;html=1;" parent="1" source="233" target="35" edge="1">
                    <mxGeometry relative="1" as="geometry"/>
                </mxCell>
                <mxCell id="233" value="DOT" style="rounded=1;arcSize=10;whiteSpace=wrap;html=1;align=center;" parent="1" vertex="1">
                    <mxGeometry x="-1287" y="-1110" width="120" height="100" as="geometry"/>
                </mxCell>
                <mxCell id="235" value="" style="curved=1;endArrow=classic;html=1;entryX=0;entryY=0.5;entryDx=0;entryDy=0;exitX=0;exitY=0.5;exitDx=0;exitDy=0;" parent="1" source="233" target="232" edge="1">
                    <mxGeometry width="50" height="50" relative="1" as="geometry">
                        <mxPoint x="-1565" y="-1230" as="sourcePoint"/>
                        <mxPoint x="-1725" y="-1230" as="targetPoint"/>
                        <Array as="points">
                            <mxPoint x="-1565" y="-1010"/>
                            <mxPoint x="-1565" y="-1460"/>
                            <mxPoint x="-1560" y="-1840"/>
                        </Array>
                    </mxGeometry>
                </mxCell>
                <mxCell id="281" value="" style="edgeStyle=none;html=1;" parent="1" source="35" target="280" edge="1">
                    <mxGeometry relative="1" as="geometry"/>
                </mxCell>
                <mxCell id="449" style="edgeStyle=none;html=1;" edge="1" parent="1" source="35">
                    <mxGeometry relative="1" as="geometry">
                        <mxPoint x="-1220" y="-540" as="targetPoint"/>
                    </mxGeometry>
                </mxCell>
                <mxCell id="35" value="OPEN_PARAM&lt;br&gt;OPEN_BRACKET" style="rounded=1;arcSize=10;whiteSpace=wrap;html=1;align=center;" parent="1" vertex="1">
                    <mxGeometry x="-1287" y="-790" width="120" height="100" as="geometry"/>
                </mxCell>
                <mxCell id="268" value="" style="edgeStyle=none;html=1;exitX=0.5;exitY=1;exitDx=0;exitDy=0;" parent="1" source="263" target="267" edge="1">
                    <mxGeometry relative="1" as="geometry"/>
                </mxCell>
                <mxCell id="277" value="" style="edgeStyle=none;html=1;" parent="1" source="263" target="276" edge="1">
                    <mxGeometry relative="1" as="geometry"/>
                </mxCell>
                <mxCell id="263" value="ASN_OPS" style="rounded=1;arcSize=10;whiteSpace=wrap;html=1;align=center;" parent="1" vertex="1">
                    <mxGeometry x="-1287.5" y="-1530" width="120" height="100" as="geometry"/>
                </mxCell>
                <mxCell id="264" value="OPHEAD = {" style="rounded=1;arcSize=10;whiteSpace=wrap;html=1;align=center;" parent="1" vertex="1">
                    <mxGeometry x="-1795" y="-1530" width="120" height="100" as="geometry"/>
                </mxCell>
                <mxCell id="265" value="" style="endArrow=none;dashed=1;html=1;dashPattern=1 3;strokeWidth=2;exitX=0;exitY=0.5;exitDx=0;exitDy=0;" parent="1" source="263" target="264" edge="1">
                    <mxGeometry width="50" height="50" relative="1" as="geometry">
                        <mxPoint x="-1340" y="-1450" as="sourcePoint"/>
                        <mxPoint x="-1365" y="-1480.2" as="targetPoint"/>
                    </mxGeometry>
                </mxCell>
                <mxCell id="424" style="edgeStyle=none;html=1;" parent="1" source="267" target="233" edge="1">
                    <mxGeometry relative="1" as="geometry"/>
                </mxCell>
                <mxCell id="267" value="" style="shape=waypoint;sketch=0;size=6;pointerEvents=1;points=[];fillColor=default;resizable=0;rotatable=0;perimeter=centerPerimeter;snapToPoint=1;rounded=1;arcSize=10;" parent="1" vertex="1">
                    <mxGeometry x="-1247.5" y="-1360" width="40" height="40" as="geometry"/>
                </mxCell>
                <mxCell id="275" value="" style="edgeStyle=none;html=1;startArrow=none;exitX=0.504;exitY=0.806;exitDx=0;exitDy=0;exitPerimeter=0;" parent="1" source="272" target="263" edge="1">
                    <mxGeometry relative="1" as="geometry"/>
                </mxCell>
                <mxCell id="272" value="" style="shape=waypoint;sketch=0;size=6;pointerEvents=1;points=[];fillColor=none;resizable=0;rotatable=0;perimeter=centerPerimeter;snapToPoint=1;" parent="1" vertex="1">
                    <mxGeometry x="-1247.5" y="-1850" width="40" height="40" as="geometry"/>
                </mxCell>
                <mxCell id="332" value="" style="edgeStyle=none;html=1;" parent="1" source="276" target="329" edge="1">
                    <mxGeometry relative="1" as="geometry"/>
                </mxCell>
                <mxCell id="276" value="EXPR" style="rounded=1;arcSize=10;whiteSpace=wrap;html=1;align=center;" parent="1" vertex="1">
                    <mxGeometry x="-1100" y="-1530" width="120" height="100" as="geometry"/>
                </mxCell>
                <mxCell id="282" style="edgeStyle=none;html=1;entryX=0.5;entryY=1;entryDx=0;entryDy=0;exitX=1.083;exitY=0.45;exitDx=0;exitDy=0;exitPerimeter=0;" parent="1" source="280" target="276" edge="1">
                    <mxGeometry relative="1" as="geometry">
                        <mxPoint x="-785" y="-1080" as="sourcePoint"/>
                    </mxGeometry>
                </mxCell>
                <mxCell id="280" value="" style="shape=waypoint;sketch=0;size=6;pointerEvents=1;points=[];fillColor=default;resizable=0;rotatable=0;perimeter=centerPerimeter;snapToPoint=1;rounded=1;arcSize=10;" parent="1" vertex="1">
                    <mxGeometry x="-1062" y="-760" width="40" height="40" as="geometry"/>
                </mxCell>
                <mxCell id="289" style="edgeStyle=none;html=1;entryX=0.575;entryY=0.717;entryDx=0;entryDy=0;entryPerimeter=0;" parent="1" source="288" target="280" edge="1">
                    <mxGeometry relative="1" as="geometry"/>
                </mxCell>
                <mxCell id="288" value="" style="shape=waypoint;sketch=0;size=6;pointerEvents=1;points=[];fillColor=none;resizable=0;rotatable=0;perimeter=centerPerimeter;snapToPoint=1;" parent="1" vertex="1">
                    <mxGeometry x="-1062" y="-440" width="40" height="40" as="geometry"/>
                </mxCell>
                <mxCell id="294" value="KWORD" style="rounded=1;arcSize=10;whiteSpace=wrap;html=1;align=center;" parent="1" vertex="1">
                    <mxGeometry x="-2910" y="-2650" width="120" height="100" as="geometry"/>
                </mxCell>
                <mxCell id="298" value="" style="endArrow=none;dashed=1;html=1;" parent="1" edge="1">
                    <mxGeometry width="50" height="50" relative="1" as="geometry">
                        <mxPoint x="-1492" y="-390" as="sourcePoint"/>
                        <mxPoint x="-1491.9999999999998" y="-570" as="targetPoint"/>
                    </mxGeometry>
                </mxCell>
                <mxCell id="299" value="&lt;i style=&quot;font-size: 10px&quot;&gt;C&lt;sup&gt;d&lt;/sup&gt;&lt;/i&gt;" style="text;html=1;align=center;verticalAlign=middle;resizable=0;points=[];autosize=1;strokeColor=none;fillColor=none;" parent="1" vertex="1">
                    <mxGeometry x="-1540" y="-620" width="30" height="20" as="geometry"/>
                </mxCell>
                <mxCell id="300" value="&lt;span style=&quot;font-size: 10px&quot;&gt;&lt;i&gt;C&lt;sup&gt;a&lt;/sup&gt;&lt;/i&gt;&lt;/span&gt;" style="text;html=1;align=center;verticalAlign=middle;resizable=0;points=[];autosize=1;strokeColor=none;fillColor=none;" parent="1" vertex="1">
                    <mxGeometry x="-1547" y="-1910" width="30" height="20" as="geometry"/>
                </mxCell>
                <mxCell id="303" value="&lt;font style=&quot;font-size: 16px&quot;&gt;&lt;b&gt;Default expression mode&lt;/b&gt;&lt;/font&gt;" style="text;html=1;align=center;verticalAlign=middle;resizable=0;points=[];autosize=1;strokeColor=none;fillColor=none;" parent="1" vertex="1">
                    <mxGeometry x="-1357" y="-2120" width="210" height="20" as="geometry"/>
                </mxCell>
                <mxCell id="304" value="OPEN_BRACE" style="rounded=1;arcSize=10;whiteSpace=wrap;html=1;align=center;" parent="1" vertex="1">
                    <mxGeometry x="-1580" y="470" width="120" height="100" as="geometry"/>
                </mxCell>
                <mxCell id="305" value="WORD" style="rounded=1;arcSize=10;whiteSpace=wrap;html=1;align=center;" parent="1" vertex="1">
                    <mxGeometry x="-1725" y="470" width="120" height="100" as="geometry"/>
                </mxCell>
                <mxCell id="308" value="WORD" style="rounded=1;arcSize=10;whiteSpace=wrap;html=1;align=center;" parent="1" vertex="1">
                    <mxGeometry x="-1425" y="470" width="120" height="100" as="geometry"/>
                </mxCell>
                <mxCell id="309" value="EQUAL" style="rounded=1;arcSize=10;whiteSpace=wrap;html=1;align=center;" parent="1" vertex="1">
                    <mxGeometry x="-1275" y="470" width="120" height="100" as="geometry"/>
                </mxCell>
                <mxCell id="310" value="CLOSE_BRACE" style="rounded=1;arcSize=10;whiteSpace=wrap;html=1;align=center;" parent="1" vertex="1">
                    <mxGeometry x="-970" y="470" width="120" height="100" as="geometry"/>
                </mxCell>
                <mxCell id="311" value="EXPR&lt;br&gt;Default expression&lt;br&gt;mode" style="rounded=1;arcSize=10;whiteSpace=wrap;html=1;align=center;" parent="1" vertex="1">
                    <mxGeometry x="-1125" y="470" width="120" height="100" as="geometry"/>
                </mxCell>
                <mxCell id="312" value="&lt;b&gt;Struct INIT&lt;/b&gt;" style="text;html=1;align=center;verticalAlign=middle;resizable=0;points=[];autosize=1;strokeColor=none;fillColor=none;fontSize=16;" parent="1" vertex="1">
                    <mxGeometry x="-1715" y="430" width="100" height="20" as="geometry"/>
                </mxCell>
                <mxCell id="313" value="WORD" style="rounded=1;arcSize=10;whiteSpace=wrap;html=1;align=center;" parent="1" vertex="1">
                    <mxGeometry x="-1580" y="650" width="120" height="100" as="geometry"/>
                </mxCell>
                <mxCell id="314" value="FN" style="rounded=1;arcSize=10;whiteSpace=wrap;html=1;align=center;" parent="1" vertex="1">
                    <mxGeometry x="-1725" y="650" width="120" height="100" as="geometry"/>
                </mxCell>
                <mxCell id="315" value="OPEN_PARAM" style="rounded=1;arcSize=10;whiteSpace=wrap;html=1;align=center;" parent="1" vertex="1">
                    <mxGeometry x="-1425" y="650" width="120" height="100" as="geometry"/>
                </mxCell>
                <mxCell id="317" value="CLOSE_PARAM" style="rounded=1;arcSize=10;whiteSpace=wrap;html=1;align=center;" parent="1" vertex="1">
                    <mxGeometry x="-1125" y="650" width="120" height="100" as="geometry"/>
                </mxCell>
                <mxCell id="318" value="EXPR&lt;br&gt;Default expression&lt;br&gt;mode" style="rounded=1;arcSize=10;whiteSpace=wrap;html=1;align=center;" parent="1" vertex="1">
                    <mxGeometry x="-1275" y="650" width="120" height="100" as="geometry"/>
                </mxCell>
                <mxCell id="319" value="&lt;b&gt;Function&lt;/b&gt;" style="text;html=1;align=center;verticalAlign=middle;resizable=0;points=[];autosize=1;strokeColor=none;fillColor=none;fontSize=16;" parent="1" vertex="1">
                    <mxGeometry x="-1705" y="610" width="80" height="20" as="geometry"/>
                </mxCell>
                <mxCell id="320" value="WORD" style="rounded=1;arcSize=10;whiteSpace=wrap;html=1;align=center;" parent="1" vertex="1">
                    <mxGeometry x="-1590" y="810" width="120" height="100" as="geometry"/>
                </mxCell>
                <mxCell id="321" value="FN" style="rounded=1;arcSize=10;whiteSpace=wrap;html=1;align=center;" parent="1" vertex="1">
                    <mxGeometry x="-1735" y="810" width="120" height="100" as="geometry"/>
                </mxCell>
                <mxCell id="322" value="OPEN_PARAM" style="rounded=1;arcSize=10;whiteSpace=wrap;html=1;align=center;" parent="1" vertex="1">
                    <mxGeometry x="-1435" y="810" width="120" height="100" as="geometry"/>
                </mxCell>
                <mxCell id="323" value="CLOSE_PARAM" style="rounded=1;arcSize=10;whiteSpace=wrap;html=1;align=center;" parent="1" vertex="1">
                    <mxGeometry x="-1135" y="810" width="120" height="100" as="geometry"/>
                </mxCell>
                <mxCell id="324" value="EXPR&lt;br&gt;Default expression&lt;br&gt;mode" style="rounded=1;arcSize=10;whiteSpace=wrap;html=1;align=center;" parent="1" vertex="1">
                    <mxGeometry x="-1285" y="810" width="120" height="100" as="geometry"/>
                </mxCell>
                <mxCell id="325" value="&lt;b&gt;Function&lt;/b&gt;" style="text;html=1;align=center;verticalAlign=middle;resizable=0;points=[];autosize=1;strokeColor=none;fillColor=none;fontSize=16;" parent="1" vertex="1">
                    <mxGeometry x="-1715" y="770" width="80" height="20" as="geometry"/>
                </mxCell>
                <mxCell id="329" value="TERMINAL&lt;br&gt;&lt;div style=&quot;text-align: left&quot;&gt;&lt;br&gt;inverted(&lt;/div&gt;&lt;div style=&quot;text-align: left&quot;&gt;&amp;nbsp; GROUP_HEAD&lt;/div&gt;&lt;div style=&quot;text-align: left&quot;&gt;) or DELIM&lt;/div&gt;" style="rounded=1;arcSize=10;whiteSpace=wrap;html=1;align=center;" parent="1" vertex="1">
                    <mxGeometry x="-925" y="-1530" width="120" height="100" as="geometry"/>
                </mxCell>
                <mxCell id="337" value="" style="edgeStyle=none;html=1;fontSize=16;exitX=1;exitY=0.5;exitDx=0;exitDy=0;entryX=0;entryY=0.5;entryDx=0;entryDy=0;" parent="1" source="339" target="342" edge="1">
                    <mxGeometry relative="1" as="geometry">
                        <mxPoint x="-2355" y="-2430" as="sourcePoint"/>
                        <mxPoint x="-2440" y="-2540" as="targetPoint"/>
                    </mxGeometry>
                </mxCell>
                <mxCell id="339" value="IF|WHILE" style="rounded=1;arcSize=10;whiteSpace=wrap;html=1;align=center;" parent="1" vertex="1">
                    <mxGeometry x="-2600" y="-2590" width="120" height="100" as="geometry"/>
                </mxCell>
                <mxCell id="341" value="IF|FOR|WHILE" style="rounded=1;arcSize=10;whiteSpace=wrap;html=1;align=center;" parent="1" vertex="1">
                    <mxGeometry x="-2910" y="-2770" width="120" height="100" as="geometry"/>
                </mxCell>
                <mxCell id="373" value="" style="edgeStyle=none;html=1;" parent="1" source="342" target="370" edge="1">
                    <mxGeometry relative="1" as="geometry"/>
                </mxCell>
                <mxCell id="342" value="OPEN_PARAM" style="rounded=1;arcSize=10;whiteSpace=wrap;html=1;align=center;" parent="1" vertex="1">
                    <mxGeometry x="-2440" y="-2590" width="120" height="100" as="geometry"/>
                </mxCell>
                <mxCell id="344" style="edgeStyle=none;html=1;" parent="1" source="343" edge="1">
                    <mxGeometry relative="1" as="geometry">
                        <mxPoint x="-1230" y="-1710" as="targetPoint"/>
                    </mxGeometry>
                </mxCell>
                <mxCell id="343" value="CLOSE_BRACKET" style="rounded=1;arcSize=10;whiteSpace=wrap;html=1;align=center;" parent="1" vertex="1">
                    <mxGeometry x="-1495" y="-1760" width="120" height="100" as="geometry"/>
                </mxCell>
                <mxCell id="347" value="" style="edgeStyle=none;html=1;" parent="1" source="345" target="346" edge="1">
                    <mxGeometry relative="1" as="geometry"/>
                </mxCell>
                <mxCell id="345" value="STRUCT" style="rounded=1;arcSize=10;whiteSpace=wrap;html=1;align=center;" parent="1" vertex="1">
                    <mxGeometry x="-2430" y="-3080" width="120" height="100" as="geometry"/>
                </mxCell>
                <mxCell id="350" value="" style="edgeStyle=none;html=1;" parent="1" source="346" target="349" edge="1">
                    <mxGeometry relative="1" as="geometry"/>
                </mxCell>
                <mxCell id="346" value="WORD" style="rounded=1;arcSize=10;whiteSpace=wrap;html=1;align=center;" parent="1" vertex="1">
                    <mxGeometry x="-2270" y="-3080" width="120" height="100" as="geometry"/>
                </mxCell>
                <mxCell id="383" value="" style="edgeStyle=none;html=1;" parent="1" source="349" target="382" edge="1">
                    <mxGeometry relative="1" as="geometry"/>
                </mxCell>
                <mxCell id="349" value="OPEN_BRACE" style="rounded=1;arcSize=10;whiteSpace=wrap;html=1;align=center;" parent="1" vertex="1">
                    <mxGeometry x="-2110" y="-3080" width="120" height="100" as="geometry"/>
                </mxCell>
                <mxCell id="352" style="edgeStyle=none;html=1;" parent="1" source="351" edge="1">
                    <mxGeometry relative="1" as="geometry">
                        <mxPoint x="-1225" y="-1600" as="targetPoint"/>
                    </mxGeometry>
                </mxCell>
                <mxCell id="351" value="CLOSE_PARAM" style="rounded=1;arcSize=10;whiteSpace=wrap;html=1;align=center;" parent="1" vertex="1">
                    <mxGeometry x="-1495" y="-1650" width="120" height="100" as="geometry"/>
                </mxCell>
                <mxCell id="358" value="&lt;i style=&quot;font-size: 10px&quot;&gt;C&lt;sup&gt;b&lt;/sup&gt;&lt;/i&gt;" style="text;html=1;align=center;verticalAlign=middle;resizable=0;points=[];autosize=1;strokeColor=none;fillColor=none;" parent="1" vertex="1">
                    <mxGeometry x="-1525" y="-1400" width="30" height="20" as="geometry"/>
                </mxCell>
                <mxCell id="431" value="" style="edgeStyle=none;html=1;" edge="1" parent="1" source="359" target="430">
                    <mxGeometry relative="1" as="geometry"/>
                </mxCell>
                <mxCell id="359" value="TERMINAL&lt;br&gt;&lt;div style=&quot;text-align: left&quot;&gt;&lt;br&gt;inverted(&lt;/div&gt;&lt;div style=&quot;text-align: left&quot;&gt;&amp;nbsp; GROUP_HEAD&lt;/div&gt;&lt;div style=&quot;text-align: left&quot;&gt;) or DELIM&lt;/div&gt;" style="rounded=1;arcSize=10;whiteSpace=wrap;html=1;align=center;" parent="1" vertex="1">
                    <mxGeometry x="-1282" y="-320" width="120" height="100" as="geometry"/>
                </mxCell>
                <mxCell id="365" value="" style="edgeStyle=none;html=1;" parent="1" source="362" target="364" edge="1">
                    <mxGeometry relative="1" as="geometry"/>
                </mxCell>
                <mxCell id="362" value="OPEN_BRACKET" style="rounded=1;arcSize=10;whiteSpace=wrap;html=1;align=center;" parent="1" vertex="1">
                    <mxGeometry x="-1515" y="-2620" width="120" height="100" as="geometry"/>
                </mxCell>
                <mxCell id="368" value="" style="edgeStyle=none;html=1;" parent="1" source="364" target="367" edge="1">
                    <mxGeometry relative="1" as="geometry"/>
                </mxCell>
                <mxCell id="364" value="COLON" style="rounded=1;arcSize=10;whiteSpace=wrap;html=1;align=center;" parent="1" vertex="1">
                    <mxGeometry x="-1310" y="-2620" width="120" height="100" as="geometry"/>
                </mxCell>
                <mxCell id="367" value="EXPR" style="rounded=1;arcSize=10;whiteSpace=wrap;html=1;align=center;" parent="1" vertex="1">
                    <mxGeometry x="-1310" y="-2480" width="120" height="100" as="geometry"/>
                </mxCell>
                <mxCell id="369" value="" style="curved=1;endArrow=classic;html=1;exitX=0.5;exitY=0;exitDx=0;exitDy=0;" parent="1" source="364" target="364" edge="1">
                    <mxGeometry width="50" height="50" relative="1" as="geometry">
                        <mxPoint x="-1250" y="-2620" as="sourcePoint"/>
                        <mxPoint x="-1210" y="-2690" as="targetPoint"/>
                        <Array as="points">
                            <mxPoint x="-1230" y="-2650"/>
                            <mxPoint x="-1320" y="-2660"/>
                        </Array>
                    </mxGeometry>
                </mxCell>
                <mxCell id="374" value="" style="edgeStyle=none;html=1;" parent="1" source="370" target="371" edge="1">
                    <mxGeometry relative="1" as="geometry"/>
                </mxCell>
                <mxCell id="370" value="..." style="rounded=1;arcSize=10;whiteSpace=wrap;html=1;align=center;" parent="1" vertex="1">
                    <mxGeometry x="-2295" y="-2590" width="120" height="100" as="geometry"/>
                </mxCell>
                <mxCell id="376" value="" style="edgeStyle=none;html=1;" parent="1" source="371" target="372" edge="1">
                    <mxGeometry relative="1" as="geometry"/>
                </mxCell>
                <mxCell id="371" value="CLOSE_PARAM" style="rounded=1;arcSize=10;whiteSpace=wrap;html=1;align=center;" parent="1" vertex="1">
                    <mxGeometry x="-2145" y="-2590" width="120" height="100" as="geometry"/>
                </mxCell>
                <mxCell id="372" value="OPEN_BRACE" style="rounded=1;arcSize=10;whiteSpace=wrap;html=1;align=center;" parent="1" vertex="1">
                    <mxGeometry x="-1995" y="-2590" width="120" height="100" as="geometry"/>
                </mxCell>
                <mxCell id="380" value="" style="edgeStyle=none;html=1;" parent="1" source="377" target="378" edge="1">
                    <mxGeometry relative="1" as="geometry"/>
                </mxCell>
                <mxCell id="377" value="IMPL" style="rounded=1;arcSize=10;whiteSpace=wrap;html=1;align=center;" parent="1" vertex="1">
                    <mxGeometry x="-2430" y="-3500" width="120" height="100" as="geometry"/>
                </mxCell>
                <mxCell id="381" value="" style="edgeStyle=none;html=1;" parent="1" source="378" target="379" edge="1">
                    <mxGeometry relative="1" as="geometry"/>
                </mxCell>
                <mxCell id="378" value="WORD" style="rounded=1;arcSize=10;whiteSpace=wrap;html=1;align=center;" parent="1" vertex="1">
                    <mxGeometry x="-2270" y="-3500" width="120" height="100" as="geometry"/>
                </mxCell>
                <mxCell id="379" value="OPEN_BRACE" style="rounded=1;arcSize=10;whiteSpace=wrap;html=1;align=center;" parent="1" vertex="1">
                    <mxGeometry x="-2110" y="-3500" width="120" height="100" as="geometry"/>
                </mxCell>
                <mxCell id="385" value="" style="edgeStyle=none;html=1;" parent="1" source="382" target="384" edge="1">
                    <mxGeometry relative="1" as="geometry"/>
                </mxCell>
                <mxCell id="387" value="" style="edgeStyle=none;html=1;" parent="1" source="382" target="386" edge="1">
                    <mxGeometry relative="1" as="geometry"/>
                </mxCell>
                <mxCell id="382" value="WORD" style="rounded=1;arcSize=10;whiteSpace=wrap;html=1;align=center;" parent="1" vertex="1">
                    <mxGeometry x="-1920" y="-3080" width="120" height="100" as="geometry"/>
                </mxCell>
                <mxCell id="384" value="CLOSE_BRACE" style="rounded=1;arcSize=10;whiteSpace=wrap;html=1;align=center;" parent="1" vertex="1">
                    <mxGeometry x="-1920" y="-2940" width="120" height="100" as="geometry"/>
                </mxCell>
                <mxCell id="389" value="" style="edgeStyle=none;html=1;" parent="1" source="386" target="388" edge="1">
                    <mxGeometry relative="1" as="geometry"/>
                </mxCell>
                <mxCell id="386" value="EQUAL" style="rounded=1;arcSize=10;whiteSpace=wrap;html=1;align=center;" parent="1" vertex="1">
                    <mxGeometry x="-1735" y="-3080" width="120" height="100" as="geometry"/>
                </mxCell>
                <mxCell id="399" value="" style="edgeStyle=none;html=1;" parent="1" source="388" target="396" edge="1">
                    <mxGeometry relative="1" as="geometry"/>
                </mxCell>
                <mxCell id="388" value="EXPR" style="rounded=1;arcSize=10;whiteSpace=wrap;html=1;align=center;" parent="1" vertex="1">
                    <mxGeometry x="-1565" y="-3080" width="120" height="100" as="geometry"/>
                </mxCell>
                <mxCell id="390" value="CLOSE_BRACE" style="rounded=1;arcSize=10;whiteSpace=wrap;html=1;align=center;" parent="1" vertex="1">
                    <mxGeometry x="-1050" y="-3080" width="120" height="100" as="geometry"/>
                </mxCell>
                <mxCell id="391" value="" style="curved=1;endArrow=classic;html=1;exitX=0.5;exitY=0;exitDx=0;exitDy=0;entryX=0.5;entryY=0;entryDx=0;entryDy=0;" parent="1" source="396" target="382" edge="1">
                    <mxGeometry width="50" height="50" relative="1" as="geometry">
                        <mxPoint x="-1510" y="-2840" as="sourcePoint"/>
                        <mxPoint x="-1780" y="-3160" as="targetPoint"/>
                        <Array as="points">
                            <mxPoint x="-1530" y="-3170"/>
                            <mxPoint x="-1790" y="-3180"/>
                        </Array>
                    </mxGeometry>
                </mxCell>
                <mxCell id="395" value="" style="edgeStyle=none;html=1;" parent="1" source="393" target="390" edge="1">
                    <mxGeometry relative="1" as="geometry"/>
                </mxCell>
                <mxCell id="393" value="" style="shape=waypoint;sketch=0;size=6;pointerEvents=1;points=[];fillColor=none;resizable=0;rotatable=0;perimeter=centerPerimeter;snapToPoint=1;" parent="1" vertex="1">
                    <mxGeometry x="-1010" y="-2920" width="40" height="40" as="geometry"/>
                </mxCell>
                <mxCell id="400" value="" style="edgeStyle=none;html=1;" parent="1" source="396" target="397" edge="1">
                    <mxGeometry relative="1" as="geometry"/>
                </mxCell>
                <mxCell id="396" value="DELIM" style="rounded=1;arcSize=10;whiteSpace=wrap;html=1;align=center;" parent="1" vertex="1">
                    <mxGeometry x="-1395" y="-3080" width="120" height="100" as="geometry"/>
                </mxCell>
                <mxCell id="397" value="CLOSE_BRACE" style="rounded=1;arcSize=10;whiteSpace=wrap;html=1;align=center;" parent="1" vertex="1">
                    <mxGeometry x="-1395" y="-2920" width="120" height="100" as="geometry"/>
                </mxCell>
                <mxCell id="401" value="" style="edgeStyle=none;html=1;" parent="1" source="402" target="404" edge="1">
                    <mxGeometry relative="1" as="geometry"/>
                </mxCell>
                <mxCell id="402" value="DEF" style="rounded=1;arcSize=10;whiteSpace=wrap;html=1;align=center;" parent="1" vertex="1">
                    <mxGeometry x="-2440" y="-4090" width="120" height="100" as="geometry"/>
                </mxCell>
                <mxCell id="403" value="" style="edgeStyle=none;html=1;" parent="1" source="404" target="405" edge="1">
                    <mxGeometry relative="1" as="geometry"/>
                </mxCell>
                <mxCell id="404" value="WORD" style="rounded=1;arcSize=10;whiteSpace=wrap;html=1;align=center;" parent="1" vertex="1">
                    <mxGeometry x="-2280" y="-4090" width="120" height="100" as="geometry"/>
                </mxCell>
                <mxCell id="407" value="" style="edgeStyle=none;html=1;" parent="1" source="405" target="406" edge="1">
                    <mxGeometry relative="1" as="geometry"/>
                </mxCell>
                <mxCell id="405" value="OPEN_PARAM" style="rounded=1;arcSize=10;whiteSpace=wrap;html=1;align=center;" parent="1" vertex="1">
                    <mxGeometry x="-2120" y="-4090" width="120" height="100" as="geometry"/>
                </mxCell>
                <mxCell id="409" value="" style="edgeStyle=none;html=1;entryX=0.5;entryY=0;entryDx=0;entryDy=0;" parent="1" source="406" target="410" edge="1">
                    <mxGeometry relative="1" as="geometry">
                        <mxPoint x="-1880" y="-3890" as="targetPoint"/>
                    </mxGeometry>
                </mxCell>
                <mxCell id="412" value="" style="edgeStyle=none;html=1;" parent="1" source="406" target="411" edge="1">
                    <mxGeometry relative="1" as="geometry"/>
                </mxCell>
                <mxCell id="406" value="WORD" style="rounded=1;arcSize=10;whiteSpace=wrap;html=1;align=center;" parent="1" vertex="1">
                    <mxGeometry x="-1940" y="-4090" width="120" height="100" as="geometry"/>
                </mxCell>
                <mxCell id="414" style="edgeStyle=none;html=1;entryX=0;entryY=0.5;entryDx=0;entryDy=0;" parent="1" source="410" target="415" edge="1">
                    <mxGeometry relative="1" as="geometry">
                        <mxPoint x="-1580" y="-3880" as="targetPoint"/>
                    </mxGeometry>
                </mxCell>
                <mxCell id="410" value="CLOSE_PARAM" style="rounded=1;arcSize=10;whiteSpace=wrap;html=1;align=center;" parent="1" vertex="1">
                    <mxGeometry x="-1940" y="-3930" width="120" height="100" as="geometry"/>
                </mxCell>
                <mxCell id="411" value="COMMA" style="rounded=1;arcSize=10;whiteSpace=wrap;html=1;align=center;" parent="1" vertex="1">
                    <mxGeometry x="-1760" y="-4090" width="120" height="100" as="geometry"/>
                </mxCell>
                <mxCell id="413" value="" style="curved=1;endArrow=classic;html=1;exitX=0.5;exitY=0;exitDx=0;exitDy=0;entryX=0.5;entryY=0;entryDx=0;entryDy=0;" parent="1" source="411" target="406" edge="1">
                    <mxGeometry width="50" height="50" relative="1" as="geometry">
                        <mxPoint x="-1740" y="-4170" as="sourcePoint"/>
                        <mxPoint x="-1690" y="-4220" as="targetPoint"/>
                        <Array as="points">
                            <mxPoint x="-1690" y="-4170"/>
                            <mxPoint x="-1810" y="-4200"/>
                        </Array>
                    </mxGeometry>
                </mxCell>
                <mxCell id="415" value="OPEN_BRACE" style="rounded=1;arcSize=10;whiteSpace=wrap;html=1;align=center;" parent="1" vertex="1">
                    <mxGeometry x="-1580" y="-3930" width="120" height="100" as="geometry"/>
                </mxCell>
                <mxCell id="416" value="" style="edgeStyle=none;html=1;" parent="1" source="417" target="419" edge="1">
                    <mxGeometry relative="1" as="geometry"/>
                </mxCell>
                <mxCell id="417" value="WORD" style="rounded=1;arcSize=10;whiteSpace=wrap;html=1;align=center;" parent="1" vertex="1">
                    <mxGeometry x="-2440" y="-3790" width="120" height="100" as="geometry"/>
                </mxCell>
                <mxCell id="419" value="DOT" style="rounded=1;arcSize=10;whiteSpace=wrap;html=1;align=center;" parent="1" vertex="1">
                    <mxGeometry x="-2280" y="-3790" width="120" height="100" as="geometry"/>
                </mxCell>
                <mxCell id="421" value="" style="curved=1;endArrow=classic;html=1;exitX=0.5;exitY=0;exitDx=0;exitDy=0;entryX=0.5;entryY=0;entryDx=0;entryDy=0;" parent="1" source="419" target="417" edge="1">
                    <mxGeometry width="50" height="50" relative="1" as="geometry">
                        <mxPoint x="-2170" y="-3720" as="sourcePoint"/>
                        <mxPoint x="-2200" y="-3900" as="targetPoint"/>
                        <Array as="points">
                            <mxPoint x="-2280" y="-3820"/>
                            <mxPoint x="-2290" y="-3820"/>
                            <mxPoint x="-2380" y="-3830"/>
                        </Array>
                    </mxGeometry>
                </mxCell>
                <mxCell id="422" value="DOT" style="rounded=1;arcSize=10;whiteSpace=wrap;html=1;align=center;" parent="1" vertex="1">
                    <mxGeometry x="-1795" y="-1190" width="120" height="100" as="geometry"/>
                </mxCell>
                <mxCell id="426" value="" style="edgeStyle=none;html=1;" parent="1" source="423" target="425" edge="1">
                    <mxGeometry relative="1" as="geometry"/>
                </mxCell>
                <mxCell id="423" value="CLOSE_BRACE" style="rounded=1;arcSize=10;whiteSpace=wrap;html=1;align=center;" parent="1" vertex="1">
                    <mxGeometry x="-1480" y="-950" width="120" height="100" as="geometry"/>
                </mxCell>
                <mxCell id="425" value="" style="shape=waypoint;sketch=0;size=6;pointerEvents=1;points=[];fillColor=default;resizable=0;rotatable=0;perimeter=centerPerimeter;snapToPoint=1;rounded=1;arcSize=10;" parent="1" vertex="1">
                    <mxGeometry x="-1240" y="-920" width="40" height="40" as="geometry"/>
                </mxCell>
                <mxCell id="334" value="OPEN_BRACE" style="rounded=1;arcSize=10;whiteSpace=wrap;html=1;align=center;" parent="1" vertex="1">
                    <mxGeometry x="-1495" y="-2120" width="120" height="100" as="geometry"/>
                </mxCell>
                <mxCell id="432" value="" style="edgeStyle=none;html=1;" edge="1" parent="1" source="430" target="288">
                    <mxGeometry relative="1" as="geometry"/>
                </mxCell>
                <mxCell id="430" value="" style="shape=waypoint;sketch=0;size=6;pointerEvents=1;points=[];fillColor=default;resizable=0;rotatable=0;perimeter=centerPerimeter;snapToPoint=1;rounded=1;arcSize=10;" vertex="1" parent="1">
                    <mxGeometry x="-1060" y="-290" width="40" height="40" as="geometry"/>
                </mxCell>
                <mxCell id="437" value="" style="shape=waypoint;sketch=0;size=6;pointerEvents=1;points=[];fillColor=default;resizable=0;rotatable=0;perimeter=centerPerimeter;snapToPoint=1;rounded=1;arcSize=10;" vertex="1" parent="1">
                    <mxGeometry x="-1247" y="-1220" width="40" height="40" as="geometry"/>
                </mxCell>
                <mxCell id="440" value="&lt;i style=&quot;color: rgb(240 , 240 , 240) ; font-family: &amp;#34;helvetica&amp;#34; ; font-size: 10px ; font-weight: 400 ; letter-spacing: normal ; text-align: center ; text-indent: 0px ; text-transform: none ; word-spacing: 0px ; background-color: rgb(42 , 42 , 42)&quot;&gt;C&lt;sup&gt;c&lt;/sup&gt;&lt;/i&gt;" style="text;whiteSpace=wrap;html=1;" vertex="1" parent="1">
                    <mxGeometry x="-1540" y="-950" width="40" height="30" as="geometry"/>
                </mxCell>
                <mxCell id="441" value="&lt;i&gt;s&lt;sup&gt;a&lt;/sup&gt;&lt;/i&gt;" style="text;html=1;align=center;verticalAlign=middle;resizable=0;points=[];autosize=1;strokeColor=none;fillColor=none;" vertex="1" parent="1">
                    <mxGeometry x="-1207" y="-1560" width="30" height="20" as="geometry"/>
                </mxCell>
                <mxCell id="442" value="&lt;i&gt;s&lt;sup&gt;b&lt;/sup&gt;&lt;/i&gt;" style="text;html=1;align=center;verticalAlign=middle;resizable=0;points=[];autosize=1;strokeColor=none;fillColor=none;" vertex="1" parent="1">
                    <mxGeometry x="-1192" y="-1150" width="30" height="20" as="geometry"/>
                </mxCell>
                <mxCell id="444" value="&lt;i&gt;s&lt;sup&gt;c&lt;/sup&gt;&lt;/i&gt;" style="text;html=1;align=center;verticalAlign=middle;resizable=0;points=[];autosize=1;strokeColor=none;fillColor=none;" vertex="1" parent="1">
                    <mxGeometry x="-1190" y="-830" width="30" height="20" as="geometry"/>
                </mxCell>
                <mxCell id="445" value="&lt;i&gt;s&lt;sup&gt;d&lt;/sup&gt;&lt;/i&gt;" style="text;html=1;align=center;verticalAlign=middle;resizable=0;points=[];autosize=1;strokeColor=none;fillColor=none;" vertex="1" parent="1">
                    <mxGeometry x="-1177" y="-510" width="30" height="20" as="geometry"/>
                </mxCell>
                <mxCell id="447" value="" style="edgeStyle=none;html=1;" edge="1" parent="1" source="446" target="49">
                    <mxGeometry relative="1" as="geometry"/>
                </mxCell>
                <mxCell id="446" value="BOOL" style="rounded=1;arcSize=10;whiteSpace=wrap;html=1;align=center;" vertex="1" parent="1">
                    <mxGeometry x="-1480" y="-470" width="120" height="100" as="geometry"/>
                </mxCell>
            </root>
        </mxGraphModel>
    </diagram>
</mxfile>